<svg width="19" height="19" viewBox="0 0 19 19" fill="none" xmlns="http://www.w3.org/2000/svg">
<path d="M16.4529 2.54719C16.3728 2.46743 16.2715 2.41221 16.1611 2.38802C16.0507 2.36383 15.9356 2.37167 15.8295 2.41063L2.76697 7.16062C2.65431 7.20335 2.55733 7.27934 2.48888 7.3785C2.42044 7.47766 2.38379 7.5953 2.38379 7.71578C2.38379 7.83627 2.42044 7.9539 2.48888 8.05306C2.55733 8.15222 2.65431 8.22821 2.76697 8.27094L7.86728 10.3075L11.6317 6.53125L12.4688 7.36844L8.68665 11.1506L10.7292 16.2509C10.7732 16.3614 10.8493 16.4561 10.9478 16.5228C11.0462 16.5895 11.1624 16.6251 11.2813 16.625C11.4013 16.6225 11.5178 16.5838 11.6153 16.5138C11.7128 16.4439 11.7868 16.346 11.8276 16.2331L16.5776 3.17063C16.618 3.06558 16.6278 2.95119 16.6057 2.84081C16.5836 2.73043 16.5306 2.6286 16.4529 2.54719Z" fill="white"/>
</svg>
